<svg width="40" height="40" viewBox="0 0 40 40" fill="none" xmlns="http://www.w3.org/2000/svg">
  <defs>
    <linearGradient id="g1" x1="0" y1="0" x2="40" y2="40" gradientUnits="userSpaceOnUse">
      <stop offset="0%" stop-color="#0d9488"/>
      <stop offset="100%" stop-color="#6366f1"/>
    </linearGradient>
    <linearGradient id="g2" x1="0" y1="0" x2="40" y2="40" gradientUnits="userSpaceOnUse">
      <stop offset="0%" stop-color="#0d9488" stop-opacity="0.15"/>
      <stop offset="100%" stop-color="#6366f1" stop-opacity="0.15"/>
    </linearGradient>
  </defs>

  <!-- Document background -->
  <rect x="3" y="2" width="24" height="31" rx="4" fill="url(#g2)"/>
  <rect x="3" y="2" width="24" height="31" rx="4" stroke="url(#g1)" stroke-width="2"/>

  <!-- Folded corner -->
  <path d="M19 2 L27 10" stroke="url(#g1)" stroke-width="2"/>
  <path d="M19 2 L19 10 L27 10" fill="url(#g2)" stroke="url(#g1)" stroke-width="1.5" stroke-linejoin="round"/>

  <!-- Resume text lines -->
  <line x1="8" y1="16" x2="20" y2="16" stroke="url(#g1)" stroke-width="2" stroke-linecap="round"/>
  <line x1="8" y1="21" x2="20" y2="21" stroke="url(#g1)" stroke-width="2" stroke-linecap="round"/>
  <line x1="8" y1="26" x2="15" y2="26" stroke="url(#g1)" stroke-width="2" stroke-linecap="round"/>

  <!-- AI spark circle badge -->
  <circle cx="30" cy="30" r="9" fill="white" stroke="none"/>
  <circle cx="30" cy="30" r="9" fill="url(#g1)"/>

  <!-- Sparkle / AI star inside badge -->
  <path d="M30 24.5 L31.1 28.9 L35.5 30 L31.1 31.1 L30 35.5 L28.9 31.1 L24.5 30 L28.9 28.9 Z"
        fill="white"/>
</svg>
